{"title":"Jennifer Lopez-On the Floor(So You Think You Can Dance-The Final","uid":6599340,"size":347889050,"categoryP":"video","categoryS":"music_videos","magnet":"?xt=urn:btih:fffdbbe7e9a0fd5393d2a3debc6008b20d583489&amp;dn=Jennifer+Lopez-On+the+Floor%28So+You+Think+You+Can+Dance-The+Final&amp;tr=udp%3A%2F%2Ftracker.openbittorrent.com%3A80&amp;tr=udp%3A%2F%2Fopen.demonii.com%3A1337&amp;tr=udp%3A%2F%2Ftracker.coppersurfer.tk%3A6969&amp;tr=udp%3A%2F%2Fexodus.desync.com%3A6969","seeders":1,"leechers":0,"uploader":"wushan","files":1,"time":1313143853,"description":"Jennifer Lopez-On the Floor(So You Think You Can Dance)\n\n\n                                        The Final BBC One HD 11-June-2011\n\n\n      Format : AVI\n      Format/Info : Audio Video Interleave\n      File size : 332 MiB\n      Duration : 3mn 48s\n      Overall bit rate : 12.2 Mbps\n      Writing application : Lavf51.12.1\n   Video #0\n      ID : 0\n      Format : MPEG-4 Visual\n      Codec ID : DIV3\n      Codec ID/Hint : DivX 3 Low\n      Duration : 3mn 48s\n      Bit rate : 12.0 Mbps\n      Width : 1 920 pixels\n      Height : 1 080 pixels\n      Display aspect ratio : 16:9\n      Frame rate : 25.000 fps\n      Resolution : 24 bits\n      Bits/(Pixel*Frame) : 0.231\n      Stream size : 326 MiB (98%)\n   Audio #1\n      ID : 1\n      Format : MPEG Audio\n      Format version : Version 1\n      Format profile : Layer 3\n      Codec ID : 55\n      Codec ID/Hint : MP3\n      Duration : 3mn 47s\n      Bit rate mode : Constant\n      Bit rate : 192 Kbps\n      Channel(s) : 2 channels\n      Sampling rate : 44.1 KHz\n      Resolution : 16 bits\n      Stream size : 5.21 MiB (2%)\n      Alignment : Aligned on interleaves\n      Interleave, duration : 26 ms (0.65 video frame)","torrent":{"xt":"urn:btih:fffdbbe7e9a0fd5393d2a3debc6008b20d583489","amp;dn":"Jennifer+Lopez-On+the+Floor%28So+You+Think+You+Can+Dance-The+Final","amp;tr":["udp%3A%2F%2Ftracker.openbittorrent.com%3A80","udp%3A%2F%2Fopen.demonii.com%3A1337","udp%3A%2F%2Ftracker.coppersurfer.tk%3A6969","udp%3A%2F%2Fexodus.desync.com%3A6969"],"infoHash":"fffdbbe7e9a0fd5393d2a3debc6008b20d583489","infoHashBuffer":{"type":"Buffer","data":[255,253,187,231,233,160,253,83,147,210,163,222,188,96,8,178,13,88,52,137]},"announce":[],"urlList":[]}}